<svg xmlns="http://www.w3.org/2000/svg" width="8" height="13" viewBox="0 0 8 13" fill="none">
<path d="M1.49934 12.2498C1.4008 12.2503 1.30316 12.2311 1.21215 12.1933C1.12113 12.1555 1.03858 12.1 0.96934 12.0298C0.82889 11.8892 0.75 11.6986 0.75 11.4998C0.75 11.3011 0.82889 11.1105 0.96934 10.9698L5.43934 6.49985L0.96934 2.02985C0.83686 1.88767 0.764736 1.69963 0.768165 1.50532C0.771593 1.31102 0.850306 1.12564 0.987719 0.988225C1.12513 0.850812 1.31052 0.7721 1.50482 0.768672C1.69912 0.765243 1.88716 0.837366 2.02934 0.969846L7.02934 5.96985C7.16979 6.11047 7.24868 6.3011 7.24868 6.49985C7.24868 6.6986 7.16979 6.88922 7.02934 7.02985L2.02934 12.0298C1.9601 12.1 1.87755 12.1555 1.78653 12.1933C1.69552 12.2311 1.59788 12.2503 1.49934 12.2498Z" fill="#25282E"/>
</svg>