<svg xmlns="http://www.w3.org/2000/svg" width="18" height="14" viewBox="0 0 18 14" fill="none">
<g clip-path="url(#clip0_973_79231)">
<path d="M8.33213 13.992C8.27356 14.0027 8.21355 14.0027 8.15499 13.992C8.02717 13.9534 7.91546 13.8741 7.83685 13.7662C7.75824 13.6583 7.71704 13.5277 7.71952 13.3942V13.313L8.38379 8.6262H5.18054C5.07252 8.62629 4.96654 8.59675 4.87415 8.54079C4.78175 8.48483 4.70647 8.4046 4.65651 8.30883C4.60007 8.21258 4.57031 8.10303 4.57031 7.99145C4.57031 7.87988 4.60007 7.77032 4.65651 7.67408L6.13266 5.0982L9.15877 0.285948C9.22602 0.172403 9.32979 0.0850283 9.45313 0.0381052C9.57648 -0.00881796 9.71209 -0.0125138 9.8378 0.0276219C9.96562 0.0662051 10.0773 0.145489 10.1559 0.253408C10.2345 0.361327 10.2757 0.491973 10.2733 0.625463V0.706651L9.60899 5.39343H12.8196C12.9276 5.39333 13.0336 5.42287 13.126 5.47883C13.2184 5.53479 13.2937 5.61503 13.3437 5.7108C13.4001 5.80704 13.4299 5.9166 13.4299 6.02817C13.4299 6.13975 13.4001 6.2493 13.3437 6.34555L11.8675 8.92143L8.8414 13.7337C8.78579 13.8168 8.70974 13.8842 8.62055 13.9295C8.53136 13.9747 8.43204 13.9962 8.33213 13.992ZM5.99981 7.48956H8.95211C9.03353 7.49052 9.11396 7.50752 9.18881 7.53957C9.26366 7.57162 9.33147 7.6181 9.38835 7.67636C9.44524 7.73461 9.49009 7.80351 9.52035 7.8791C9.55061 7.95469 9.56569 8.03551 9.56471 8.11693V8.19811L9.12925 11.2537L10.9744 8.30144L12.0373 6.47102H9.08496C9.00354 6.47005 8.92311 6.45306 8.84826 6.42101C8.77341 6.38896 8.7056 6.34248 8.64872 6.28422C8.59183 6.22597 8.54698 6.15707 8.51672 6.08148C8.48646 6.00589 8.47138 5.92507 8.47236 5.84365V5.76247L8.90782 2.70683L7.06264 5.65914L5.99981 7.48956Z" fill="#0074E8"/>
</g>
<defs>
<clipPath id="clip0_973_79231">
<rect width="18" height="14" fill="white"/>
</clipPath>
</defs>
</svg>