<svg width="24" height="24" viewBox="0 0 24 24" fill="none" xmlns="http://www.w3.org/2000/svg">
<g id="comments">
<path id="Vector" fill-rule="evenodd" clip-rule="evenodd" d="M3.9009 17.2306C4.00915 17.2848 4.12892 17.3121 4.24999 17.31C4.32434 17.3099 4.39833 17.2998 4.46999 17.28L7.51474 16.3341C8.20414 17.5896 9.29743 18.5844 10.6263 19.1504C12.1484 19.7988 13.8622 19.8345 15.41 19.25L19.53 20.5C19.603 20.5098 19.677 20.5098 19.75 20.5H19.78C19.9011 20.5021 20.0208 20.4748 20.1291 20.4206C20.2373 20.3663 20.3308 20.2866 20.4016 20.1883C20.4723 20.0901 20.5182 19.9761 20.5354 19.8563C20.5525 19.7364 20.5404 19.6142 20.5 19.5L19.25 15.38C19.5126 14.6588 19.6479 13.8975 19.65 13.13C19.6528 12.2641 19.4792 11.4067 19.14 10.61C18.8167 9.84103 18.3481 9.1416 17.76 8.55C17.5135 8.31379 17.2493 8.09689 16.9698 7.90115C16.9189 7.74894 16.8623 7.59844 16.8 7.45C16.473 6.683 16.0049 5.98423 15.42 5.39C14.6662 4.64498 13.7413 4.0962 12.7261 3.79176C11.711 3.48732 10.6367 3.43652 9.59735 3.64379C8.55801 3.85107 7.58537 4.3101 6.76468 4.98066C5.94398 5.65122 5.30028 6.51284 4.88999 7.49C4.55154 8.28342 4.37802 9.1374 4.37999 10C4.38913 10.7473 4.52436 11.4877 4.77999 12.19L3.52999 16.31C3.48961 16.4242 3.47747 16.5464 3.49461 16.6663C3.51175 16.7861 3.55766 16.9001 3.62841 16.9983C3.69916 17.0966 3.79266 17.1763 3.9009 17.2306ZM17.2742 10.563C17.2124 11.2112 17.0529 11.8475 16.8 12.45C16.473 13.217 16.0049 13.9158 15.42 14.51C14.5431 15.3853 13.4337 15.9909 12.2231 16.255C11.2264 16.4724 10.1956 16.4508 9.214 16.1961C9.33889 16.3654 9.47444 16.527 9.61999 16.68C10.3212 17.3735 11.2117 17.8441 12.1797 18.0327C13.1476 18.2213 14.1498 18.1195 15.06 17.74C15.2248 17.6804 15.4052 17.6804 15.57 17.74L18.57 18.66L17.65 15.66C17.5904 15.4952 17.5904 15.3148 17.65 15.15C17.9092 14.5397 18.0419 13.8831 18.04 13.22C18.0424 12.5681 17.9154 11.9223 17.6665 11.3198C17.5576 11.056 17.4262 10.8029 17.2742 10.563ZM8.90999 5.39C9.52031 5.13075 10.1769 4.99807 10.84 5C11.6429 5.0203 12.4292 5.23374 13.1321 5.62224C13.8351 6.01075 14.4342 6.5629 14.8786 7.23195C15.323 7.901 15.5996 8.66727 15.6852 9.4659C15.7707 10.2645 15.6626 11.072 15.37 11.82C14.85 13.0276 13.8752 13.9818 12.6567 14.4759C11.4383 14.97 10.0743 14.9643 8.85999 14.46C8.69521 14.4004 8.51477 14.4004 8.34999 14.46L5.34999 15.38L6.26999 12.38C6.32957 12.2152 6.32957 12.0348 6.26999 11.87C6.01284 11.2573 5.88039 10.5995 5.88039 9.935C5.88039 9.27052 6.01284 8.6127 6.26999 8C6.78244 6.82344 7.72766 5.88897 8.90999 5.39Z" fill="#25282E"/>
</g>
</svg>
