<?xml version="1.0"?><svg xmlns="http://www.w3.org/2000/svg"  viewBox="0 0 30 30" width="30px" height="30px">    <path d="M22.968,5H6.882c-0.601,0-1.17,0.27-1.55,0.736L2.089,9.715c-0.615,0.755-0.597,1.843,0.042,2.577l11.317,12.99 c0.82,0.941,2.281,0.944,3.105,0.006l11.39-12.972c0.66-0.752,0.663-1.876,0.007-2.631l-3.472-3.996C24.098,5.251,23.547,5,22.968,5 z M26.423,10.976c-0.959,1.106-1.919,1.926-2.878,3.089c-1.25-1.684-2.709-2.421-4.481-2.421c-1.876-0.105-3.855,0-5.731-0.105 c-1.355-0.211-3.856-0.842-3.856-2c0-1.263,2.292-2.21,3.335-2.421C13.185,7.047,13.569,7.012,13.95,7h0.467 c1.152,0.028,2.234,0.284,2.875,0.644C18.96,8.486,19.377,9.842,19.689,11c1.459,0,2.852,0,4.311,0c0-0.796-0.044-2.097-0.044-2.831 L26.423,10.976z M5.205,12.696c-0.298-0.351-0.62-0.677-0.943-1.003l-0.623-0.715L6.882,7h1.499 C5.495,8.492,4.592,11.148,5.205,12.696z M21.565,7.012c-0.313,0.421-0.729,0.842-1.042,1.263c-0.313-0.421-0.729-0.842-1.355-1.263 C19.898,7.012,20.731,7.012,21.565,7.012z M7.437,15.338c3.2,0.214,6.989,0.623,10.377,0.726c0.417,0,2.397,0.316,2.501,1.263 c-0.208,1.368-4.585,1.789-5.627,1.158c-0.722-0.834-3.384-1.56-5.257-0.858L7.437,15.338z M11.978,20.38 c2.068,0.835,4.543,0.737,6.21,0.016l-3.185,3.628l-0.616-0.707C13.583,22.336,12.809,21.386,11.978,20.38z"/></svg>