<svg width="20" height="20" viewBox="0 0 20 20" fill="none" xmlns="http://www.w3.org/2000/svg">
<g id="pin-outline 1">
<path id="Vector" d="M17.8632 6.32173L14.5315 2.97173C13.9048 2.34173 12.8123 2.33506 12.1732 2.96673C12.0098 3.13006 11.8815 3.33006 11.8248 3.4909C11.2807 4.6259 10.6965 5.33673 9.9465 5.7634L9.76567 5.8509C8.959 6.25506 7.8615 6.66673 5.83317 6.66673C5.6115 6.66673 5.399 6.71006 5.19484 6.7934C4.78746 6.96462 4.46365 7.28903 4.29317 7.69673C4.1273 8.1041 4.1273 8.56019 4.29317 8.96756C4.37984 9.17506 4.5015 9.36006 4.65567 9.51006L7.3515 12.2059L4.1665 16.6667L8.6265 13.4817L11.3157 16.1709C11.4707 16.3284 11.654 16.4534 11.8623 16.5384C12.0643 16.6234 12.2812 16.6671 12.5003 16.6671C12.7193 16.6671 12.9362 16.6234 13.1382 16.5384C13.3406 16.4563 13.5245 16.3345 13.679 16.1803C13.8336 16.026 13.9557 15.8423 14.0382 15.6401C14.124 15.4384 14.1673 15.2176 14.1673 15.0001C14.1673 12.9701 14.579 11.8734 14.9823 11.0659C15.3957 10.2392 16.1232 9.60923 17.2773 9.05423C17.5032 8.96756 17.7023 8.8409 17.8698 8.6734C18.1789 8.35964 18.3515 7.93657 18.3503 7.49619C18.349 7.05581 18.174 6.63372 17.8632 6.32173ZM13.4898 10.3226C12.8073 11.6917 12.4998 13.1309 12.494 14.9926L5.83317 8.3334C7.61567 8.3334 9.0115 8.05423 10.3298 7.43006L10.5257 7.34256C11.6915 6.76006 12.5823 5.76506 13.349 4.14756L16.619 7.5234C15.0665 8.26756 14.0723 9.15673 13.4898 10.3226Z" fill="#25282E"/>
</g>
</svg>
