<svg width="20" height="20" viewBox="0 0 20 20" fill="none" xmlns="http://www.w3.org/2000/svg">
<g id="placeholder">
<path id="Union" fill-rule="evenodd" clip-rule="evenodd" d="M4.67622 3.79234C4.77949 3.76472 4.88803 3.75 5 3.75H15C15.112 3.75 15.2205 3.76472 15.3238 3.79234L10 9.11612L4.67622 3.79234ZM3.79234 4.67622C3.76472 4.77949 3.75 4.88803 3.75 5V15C3.75 15.112 3.76472 15.2205 3.79234 15.3238L9.11612 10L3.79234 4.67622ZM4.67622 16.2077C4.77949 16.2353 4.88803 16.25 5 16.25H15C15.112 16.25 15.2205 16.2353 15.3238 16.2077L10 10.8839L4.67622 16.2077ZM16.2077 15.3238C16.2353 15.2205 16.25 15.112 16.25 15V5C16.25 4.88803 16.2353 4.77949 16.2077 4.67622L10.8839 10L16.2077 15.3238ZM2.5 5C2.5 3.61929 3.61929 2.5 5 2.5H15C16.3807 2.5 17.5 3.61929 17.5 5V15C17.5 16.3807 16.3807 17.5 15 17.5H5C3.61929 17.5 2.5 16.3807 2.5 15V5Z" fill="#005AC2"/>
</g>
</svg>
