<svg xmlns="http://www.w3.org/2000/svg" width="11" height="15" viewBox="0 0 11 15" fill="none">
<path fill-rule="evenodd" clip-rule="evenodd" d="M6.39898 0.588711C7.29174 0.766668 8.11159 1.20563 8.75463 1.84999C9.35929 2.45819 9.78212 3.22314 9.97551 4.05867C10.1689 4.89421 10.1252 5.76714 9.84922 6.57916C9.57329 7.39118 9.07611 8.11003 8.41369 8.65475C7.75127 9.19946 6.94992 9.54841 6.09989 9.66229V10.7018C6.09989 10.8609 6.0367 11.0134 5.92424 11.1259C5.81177 11.2383 5.65923 11.3015 5.50017 11.3015C5.34112 11.3015 5.18858 11.2383 5.07611 11.1259C4.96364 11.0134 4.90046 10.8609 4.90046 10.7018V9.10255C4.90253 8.94414 4.96638 8.7928 5.0784 8.68078C5.19042 8.56876 5.34176 8.50491 5.50017 8.50284C6.17457 8.50442 6.83426 8.30578 7.39566 7.93209C7.95706 7.5584 8.39491 7.02648 8.65372 6.40372C8.91253 5.78096 8.98066 5.09538 8.84948 4.43387C8.7183 3.77235 8.39371 3.16465 7.91684 2.68778C7.43997 2.21091 6.83227 1.88632 6.17075 1.75514C5.50924 1.62396 4.82366 1.69209 4.2009 1.9509C3.57814 2.20971 3.04622 2.64756 2.67253 3.20896C2.29884 3.77036 2.1002 4.43005 2.10178 5.10445C2.10178 5.2635 2.0386 5.41604 1.92613 5.52851C1.81366 5.64098 1.66112 5.70416 1.50206 5.70416C1.34301 5.70416 1.19047 5.64098 1.078 5.52851C0.965533 5.41604 0.902349 5.2635 0.902349 5.10445C0.901037 4.19412 1.16998 3.30389 1.67511 2.54657C2.18023 1.78924 2.8988 1.19891 3.73976 0.850361C4.58072 0.501817 5.50622 0.410754 6.39898 0.588711ZM6.49969 13.5005C6.49969 14.0525 6.05219 14.5 5.50017 14.5C4.94814 14.5 4.50064 14.0525 4.50064 13.5005C4.50064 12.9485 4.94814 12.501 5.50017 12.501C6.05219 12.501 6.49969 12.9485 6.49969 13.5005Z" fill="#389D91"/>
</svg>