<svg xmlns="http://www.w3.org/2000/svg" width="11" height="11" viewBox="0 0 11 11" fill="none">
<path d="M2.40802 0.5C2.23382 0.5 2.06675 0.5692 1.94358 0.692377C1.8204 0.815554 1.7512 0.982618 1.7512 1.15682C1.7512 1.33102 1.8204 1.49808 1.94358 1.62126C2.06675 1.74443 2.23382 1.81363 2.40802 1.81363H8.25807L0.70905 9.36265C0.644519 9.42278 0.59276 9.49529 0.556861 9.57586C0.520962 9.65643 0.501658 9.7434 0.500102 9.8316C0.498546 9.91979 0.514769 10.0074 0.547804 10.0892C0.580838 10.171 0.630007 10.2453 0.692377 10.3076C0.754748 10.37 0.829041 10.4192 0.910827 10.4522C0.992612 10.4852 1.08021 10.5015 1.1684 10.4999C1.2566 10.4983 1.34357 10.479 1.42414 10.4431C1.50471 10.4072 1.57722 10.3555 1.63735 10.2909L9.18637 2.74193V8.59198C9.18637 8.76618 9.25557 8.93325 9.37874 9.05642C9.50192 9.1796 9.66899 9.2488 9.84318 9.2488C10.0174 9.2488 10.1844 9.1796 10.3076 9.05642C10.4308 8.93325 10.5 8.76618 10.5 8.59198V1.15682C10.4995 1.06951 10.4817 0.98317 10.4475 0.902848C10.3998 0.790876 10.3223 0.694116 10.2235 0.62309C10.1247 0.552064 10.0083 0.509491 9.88697 0.5H2.40802Z" fill="#D67139"/>
</svg>