<svg xmlns="http://www.w3.org/2000/svg" width="14" height="14" viewBox="0 0 14 14" fill="none">
<path fill-rule="evenodd" clip-rule="evenodd" d="M2.67572 11.0265C3.66579 11.688 4.8298 12.0411 6.02056 12.0411C6.81119 12.0411 7.59408 11.8854 8.32452 11.5828C8.86975 11.357 9.37778 11.0526 9.83287 10.6803L12.9766 13.8241C13.032 13.8801 13.098 13.9245 13.1707 13.9548C13.2435 13.985 13.3216 14.0003 13.4004 14C13.4791 14.0003 13.5572 13.985 13.63 13.9548C13.7028 13.9245 13.7688 13.8801 13.8241 13.8241C13.9364 13.7116 13.9995 13.5592 13.9995 13.4003C13.9995 13.2414 13.9364 13.089 13.8241 12.9765L10.6804 9.8328C11.0527 9.37773 11.357 8.86972 11.5828 8.32452C11.8854 7.59408 12.0411 6.81119 12.0411 6.02056C12.0411 4.8298 11.688 3.66579 11.0265 2.67572C10.3649 1.68564 9.42464 0.913972 8.32452 0.45829C7.22441 0.00260856 6.01388 -0.116618 4.84601 0.115686C3.67813 0.34799 2.60537 0.921393 1.76338 1.76338C0.921393 2.60537 0.34799 3.67813 0.115686 4.84601C-0.116618 6.01388 0.00260856 7.22441 0.45829 8.32452C0.913972 9.42464 1.68564 10.3649 2.67572 11.0265ZM3.35535 2.0158C4.14425 1.48867 5.07175 1.20731 6.02056 1.20731C7.29287 1.20731 8.51307 1.71274 9.41273 2.6124C10.3124 3.51206 10.8178 4.73226 10.8178 6.00457C10.8178 6.95337 10.5365 7.88088 10.0093 8.66978C9.4822 9.45868 8.73297 10.0736 7.85639 10.4367C6.9798 10.7997 6.01524 10.8947 5.08466 10.7096C4.15408 10.5245 3.29929 10.0676 2.62839 9.39674C1.95748 8.72583 1.50058 7.87104 1.31548 6.94046C1.13038 6.00989 1.22538 5.04532 1.58847 4.16874C1.95156 3.29215 2.56644 2.54292 3.35535 2.0158Z" fill="#C261FF"/>
</svg>