<svg width="24" height="24" viewBox="0 0 24 24" fill="none" xmlns="http://www.w3.org/2000/svg">
<g id="history">
<path id="Vector" fill-rule="evenodd" clip-rule="evenodd" d="M12.13 3.63523C14.349 3.63523 16.4776 4.51428 18.05 6.08C19.6201 7.65009 20.5021 9.77957 20.5021 12C20.5021 14.2204 19.6201 16.3499 18.05 17.92C16.4799 19.4901 14.3504 20.3722 12.13 20.3722C9.90957 20.3722 7.78008 19.4901 6.21 17.92C6.13924 17.8511 6.08301 17.7686 6.04461 17.6776C6.00621 17.5866 5.98643 17.4888 5.98643 17.39C5.98643 17.2912 6.00621 17.1934 6.04461 17.1024C6.08301 17.0114 6.13924 16.929 6.21 16.86C6.35063 16.7196 6.54125 16.6407 6.74 16.6407C6.93875 16.6407 7.12937 16.7196 7.27 16.86C13.99 23.05 23.18 13.83 16.99 7.14C15.7001 5.85275 13.9523 5.12979 12.13 5.12979C10.3077 5.12979 8.55985 5.85275 7.27 7.14L6 8.38H9C9.19891 8.38 9.38968 8.45902 9.53033 8.59967C9.67098 8.74033 9.75 8.93109 9.75 9.13C9.75 9.32892 9.67098 9.51968 9.53033 9.66033C9.38968 9.80099 9.19891 9.88 9 9.88H4.25C4.05017 9.87738 3.85942 9.79614 3.71905 9.6539C3.57868 9.51166 3.49998 9.31985 3.5 9.12V4.38C3.5 4.18109 3.57902 3.99033 3.71967 3.84967C3.86032 3.70902 4.05109 3.63 4.25 3.63C4.44891 3.63 4.63968 3.70902 4.78033 3.84967C4.92098 3.99033 5 4.18109 5 4.38V7.29L6.21 6.08C7.78239 4.51428 9.91101 3.63523 12.13 3.63523ZM11.4725 7.97253C11.6126 7.83244 11.8019 7.75259 12 7.75C12.1928 7.76015 12.3746 7.84332 12.5083 7.98263C12.642 8.12193 12.7177 8.30691 12.72 8.5V11.72L15 14C15.0848 14.1026 15.1408 14.2259 15.1622 14.3572C15.1836 14.4886 15.1696 14.6233 15.1218 14.7474C15.0739 14.8716 14.9939 14.9809 14.8899 15.0639C14.7859 15.1469 14.6617 15.2008 14.53 15.22C14.4315 15.2205 14.3338 15.2012 14.2428 15.1635C14.1518 15.1257 14.0692 15.0701 14 15L11.47 12.53C11.3293 12.3895 11.2502 12.1988 11.25 12V8.5C11.2526 8.30189 11.3324 8.11263 11.4725 7.97253Z" fill="white"/>
</g>
<defs>
<linearGradient id="paint0_linear_8_9519" x1="3.5" y1="3.63" x2="20.6293" y2="3.76108" gradientUnits="userSpaceOnUse">
<stop stop-color="#0074E8"/>
<stop offset="1" stop-color="#A933FB"/>
</linearGradient>
</defs>
</svg>
