<svg width="24" height="24" viewBox="0 0 24 24" fill="none" xmlns="http://www.w3.org/2000/svg">
<g id="search">
<path id="Union" fill-rule="evenodd" clip-rule="evenodd" d="M6.58655 17.031C7.82485 17.8584 9.2807 18.3 10.77 18.3C11.7588 18.3 12.738 18.1052 13.6516 17.7268C14.3336 17.4443 14.969 17.0637 15.5382 16.598L19.47 20.5297C19.5392 20.5998 19.6218 20.6554 19.7128 20.6932C19.8038 20.731 19.9014 20.7502 20 20.7497C20.0985 20.7502 20.1961 20.731 20.2872 20.6932C20.3782 20.6554 20.4607 20.5998 20.53 20.5297C20.6704 20.3891 20.7493 20.1985 20.7493 19.9997C20.7493 19.801 20.6704 19.6104 20.53 19.4697L16.5982 15.5379C17.0638 14.9688 17.4444 14.3335 17.7268 13.6516C18.1052 12.738 18.3 11.7589 18.3 10.77C18.3 9.28071 17.8584 7.82486 17.031 6.58656C16.2036 5.34826 15.0275 4.38312 13.6516 3.81319C12.2757 3.24326 10.7616 3.09414 9.30096 3.38469C7.84029 3.67523 6.49857 4.3924 5.44548 5.44549C4.39239 6.49858 3.67523 7.84029 3.38468 9.30097C3.09413 10.7616 3.24325 12.2757 3.81318 13.6516C4.38311 15.0275 5.34825 16.2036 6.58655 17.031ZM7.43657 5.76118C8.42327 5.1019 9.58331 4.75 10.77 4.75C12.3613 4.75 13.8874 5.38214 15.0126 6.50736C16.1379 7.63258 16.77 9.1587 16.77 10.75C16.77 11.9367 16.4181 13.0967 15.7588 14.0834C15.0995 15.0701 14.1624 15.8392 13.0661 16.2933C11.9697 16.7474 10.7633 16.8662 9.59945 16.6347C8.43556 16.4032 7.36647 15.8318 6.52735 14.9926C5.68824 14.1535 5.11679 13.0844 4.88528 11.9205C4.65377 10.7567 4.77259 9.55026 5.22672 8.4539C5.68084 7.35754 6.44988 6.42047 7.43657 5.76118Z" fill="white"/>
</g>
</svg>
