<svg width="24" height="24" viewBox="0 0 24 24" fill="none" xmlns="http://www.w3.org/2000/svg">
<g id="search">
<path id="Vector" fill-rule="evenodd" clip-rule="evenodd" d="M6.58679 17.031C7.8251 17.8584 9.28094 18.3 10.7702 18.3C11.7591 18.3 12.7383 18.1052 13.6518 17.7268C14.3337 17.4444 14.9691 17.0637 15.5383 16.5981L19.4702 20.53C19.5395 20.6001 19.622 20.6557 19.713 20.6934C19.804 20.7312 19.9017 20.7504 20.0002 20.75C20.0987 20.7504 20.1964 20.7312 20.2874 20.6934C20.3784 20.6557 20.461 20.6001 20.5302 20.53C20.6707 20.3893 20.7495 20.1987 20.7495 20C20.7495 19.8012 20.6707 19.6106 20.5302 19.47L16.5983 15.5381C17.064 14.9689 17.4446 14.3335 17.727 13.6516C18.1055 12.738 18.3002 11.7589 18.3002 10.77C18.3002 9.28071 17.8586 7.82486 17.0312 6.58656C16.2038 5.34825 15.0278 4.38312 13.6518 3.81319C12.2759 3.24326 10.7619 3.09414 9.30121 3.38469C7.84053 3.67523 6.49881 4.3924 5.44572 5.44549C4.39263 6.49858 3.67547 7.84029 3.38492 9.30097C3.09438 10.7616 3.2435 12.2757 3.81342 13.6516C4.38335 15.0275 5.34849 16.2036 6.58679 17.031ZM7.43682 5.76118C8.42351 5.10189 9.58355 4.75 10.7702 4.75C12.3615 4.75 13.8877 5.38214 15.0129 6.50736C16.1381 7.63258 16.7702 9.1587 16.7702 10.75C16.7702 11.9367 16.4183 13.0967 15.7591 14.0834C15.0998 15.0701 14.1627 15.8392 13.0663 16.2933C11.97 16.7474 10.7636 16.8662 9.5997 16.6347C8.43581 16.4032 7.36671 15.8318 6.5276 14.9926C5.68848 14.1535 5.11704 13.0844 4.88553 11.9205C4.65401 10.7567 4.77283 9.55026 5.22696 8.4539C5.68109 7.35754 6.45012 6.42047 7.43682 5.76118Z" fill="#0B3A66"/>
</g>
</svg>
